# xmcd CD database file
#
# Track frame offsets:
#	150
#	23207
#	42527
#	60622
#	78347
#	99470
#	118462
#	135215
#	153372
#	173235
#	194512
#	210307
#	235382
#	254942
#	272797
#	285761
#
# Disc length: 4374 seconds
#
# Revision: 0
# Processed by: cddbd v1.5.2PL0 Copyright (c) Steve Scherf et al.
# Submitted via: CDex 1.70beta2
#
DISCID=e5111410
DTITLE=Joe Cocker - The Best Of Joe Cocker
DYEAR=1900
DGENRE=Blues
TTITLE0=unchain my heart (90´s version)
TTITLE1=you can leave your hat on
TTITLE2=when the night comes
TTITLE3=up where we belong
TTITLE4=now that the magic has gone
TTITLE5=don´t you love me anymore
TTITLE6=i can hear the river
TTITLE7=sorry seems to be the hardest word
TTITLE8=shelter me
TTITLE9=feels like forever
TTITLE10=night calls
TTITLE11=don´t let the sun go down on me
TTITLE12=now that you´re gone
TTITLE13=civilized man
TTITLE14=when a woman cries
TTITLE15=with a little help from my friends (live)
EXTD=
EXTT0=
EXTT1=
EXTT2=
EXTT3=
EXTT4=
EXTT5=
EXTT6=
EXTT7=
EXTT8=
EXTT9=
EXTT10=
EXTT11=
EXTT12=
EXTT13=
EXTT14=
EXTT15=
PLAYORDER=
